<?xml version="1.0" encoding="utf-8"?>
<!-- Generator: Adobe Illustrator 24.0.2, SVG Export Plug-In . SVG Version: 6.00 Build 0)  -->
<svg version="1.1" id="레이어_1" xmlns="http://www.w3.org/2000/svg" xmlns:xlink="http://www.w3.org/1999/xlink" x="0px"
	 y="0px" viewBox="0 0 731.6 263.3" style="enable-background:new 0 0 731.6 263.3;" xml:space="preserve">
<style type="text/css">
	.st0{fill:#333333;}
</style>
<g>
	<path class="st0" d="M111.2,26l-0.9,1.4l-0.1,0.9l-0.3,0.1v0.3l-0.3,0.1h-0.7l-0.7,0.4l-0.9,0.4l-1,0.6l-0.1,0.1l-0.1,0.3l-0.4,0.7
		l0.1,0.4v0.7l-0.4,1.1l-0.6,0.1l-0.4,0.4l-2,4.3l-0.1,0.4l-0.3,0.1l-2.3,5.2l-0.4,0.3l-0.4,1l-0.6,0.9l-1.7,3.3l-1.7,4l-1.3,2.6
		L93.2,57l-0.4,1.1l-0.1,0.1l-0.4,1l-0.4,1.3l-0.1,0.3l-0.1,0.4l-1.6,3.4v0.1l-0.1,0.1l-0.6,1v0.3l-2.3,4.9l-0.4,0.4l-0.9,1.9V74
		l-0.1,0.4L85,74.6l-0.3-0.3l-0.3,0.4h-0.1c-2.9,6-6.2,11.9-9.3,17.7l5.3-4.6l0.4-0.6l1.3-1.4l1.4-1l0.7-0.9H85l10.6-8.3l0.4-1.1
		v-0.1l0.6-0.6l2.6-1.7l1.3-1.1l4.2-2.9l0.9-0.7l10.1-6.6l1.1-1l1.6-1.1l0.3-0.3l2.6-1.7l1.1-0.6l0.3-0.4l4.3-2.9l0.7-0.1l4.9-3.3
		l0.1-0.4l0.4-0.1h0.1l1.4-0.9l0.3-0.3l1.6-1.1l1.1-0.4l6.2-4l1.3-1.4l0.4-0.1l0.1-0.1l2.3-1l0.7-0.4l5.9-3.6l1-0.9l0.1,0.1l3.6-2.2
		l0.9-0.4l0.7-0.4l0.6-0.6l6.9-3.7v-0.3h0.3l1.6-0.4l0.7-0.4l0.3-0.4l9.8-5.2l0.9-0.1l1.4-0.7l0.1-0.1l1.4-1l2-0.9l0.6-0.6V17l1.3-1
		l0.9-0.4l1.3-0.6l2.6-0.9l1.1-0.6l2.7-0.7l3-1.4l0.6-0.4l0.1-0.4l0.3,0.3l0.3,0.1c2.9-1.1,5.9-2.6,9.5-4.3c6-2.6,12.9-3.3,19.5-4.3
		l0.7-0.1h0.3c0.6,0,0.9-0.1,1.3-0.1l0.3-0.3l6-1h0.7l2.4-0.3l0.4-0.3l0.4-0.1l0.3,0.3V1l-0.4,0.1h-0.9l-2.2,0.3L238.8,2l-0.4-0.3
		l-0.3,0.1c0,0.3-0.1,0.6-0.4,0.7c-8.3,1.9-17.1,2.7-25.6,5.6l-3.2,1.1l-2.7,1.4l-3.2,1.6l-1.1,0.7l-1.1,0.1l-1.7,0.4l-1.1,0.4
		c-4.2,1.9-8.2,3.7-12.2,5.9h-0.1l-1.4,1l-1.6,0.6l-4.9,2.6l-1.7,1.4l-4.5,2.7l-1.1,0.4l-2.2,1.6l-2.3,0.9l-1.3,0.4
		c-3,1.7-5.9,3.4-8.6,5.2l-1.1,1.1l-1.4,1l-1.6,0.7l-1.3,0.9H150l-6.9,4.6l-2.6,2.3l-1.1,0.3h-0.1l-0.6,0.4l-1.6,1.4l-2,0.9L124,58
		l-1,0.9l-0.7,1l-0.6,0.9l-0.6-0.1l-0.3,0.7l-0.7,0.4l-0.3,0.3l-2.7,0.9l-3.3,2.4l-5.5,4.9l-1.3,1l-2.2,1.6l-0.4,0.6l-1.1,0.9h-0.4
		l-1.6,1l-0.7,0.7l-2.4,1.6l-2,1.6l-3,2.3h-0.6L92.4,82l-1.6,1l-0.9,0.9l-1.4,1.1l-0.1,1v1.1l-0.6,1l-1.3,0.7l-1.3,0.3l-0.7-0.4
		v-0.6l-0.1-0.1l-2.2,1.7l-1,1.1l-0.3,0.4L80,91.8l-1.4,1l-1.3,1l-0.4,0.3l-1.3,1.1l-1.3,1l-0.4,0.6l-0.4,0.3L73,97.3l-0.9,0.9
		l0.6,0.4l1,1.9c3.2,4.5,5.9,8.2,7,9.6c1.4,2.3,3,4.5,4.6,6.6l0.7,0.4l1.1,0.7l0.6,1.1h-0.4c0.6,0.9,1.1,1.6,1.9,2.3l3.4,3.3
		l0.9,0.6v0.6l4.6,5.2l0.3-0.3l0.1,0.6l0.7,0.9l2,2.3l0.3,0.4l1.6,1.4l0.4,0.9l4.9,4.6h0.1l0.3,0.3h-0.1c0,0,0.1,0.1,0.3,0.1
		l1.1,2.4l2.3,1l0.6,0.6l2.2,1.9l1.3,0.7v0.1l1.4,1.1l0.4,1.3l1.1,1.1l0.9,0.6c0.3,0.1,0.6,0.4,0.9,0.7l0.6,0.1l0.6,0.3l1,1.1
		l0.7,0.1l0.7,0.6l0.9,0.9l2.6,2.7l1.4,0.4l0.4,0.3l1,0.4l0.4,0.3l1-0.1l0.3,0.3l0.4,1l0.7,0.7l1.9,1.1l0.1,0.1
		c1.1,0.7,2.4,2,3.6,2.9h0.3l1.7,1.1l2.2,1.3l1.6,0.6l3.9,1.4l7,4.6l2.7,1.1l3.6,2.2l1.9,0.7l3.6,2.3l3.2,0.7l0.3,0.6l0.6,0.3
		l1.9,0.9l0.9,0.4l0.9,0.6l5.9,3l2,0.9l2.2,0.7l1.3,0.3l1,0.7l-0.9,0.6l-1.4-0.3c-0.3,0.1-0.6,0-0.9-0.1l-3-0.4l-1-0.4l-1.1,0.1
		l-0.3-0.1l-0.3-0.9l-0.4-0.4l-1.3-0.9l-0.4-0.4l-7.5-3.3l-5.9-3.2l-0.6,0.1h-0.4l-0.3-0.6l-0.3-0.4c-5.2-2.6-10.5-5-15.5-7.9
		l-2-0.9h-0.7v-0.4l-0.7-0.4l-0.3-0.3l-7-4.2l-1.1-0.4l-2.6-1.7l-2.3-1.1l-2-1.1l-1.3-0.9l-1.4-1.6l-3.4-2.3l-0.3-0.1l-1.4-0.4
		l-1.1-0.3l-1.1-0.9l-1.4-1.1l-0.9-0.7l-0.3-1l-0.7-1l-0.4-0.7c-3.9-3-7.8-6.3-10.9-9.9l-1.3-0.9l-0.1-0.6l-1.9-1.9l-1.4-1.1l-2-1.7
		l-3.7-5.5l0.1,0.1c-3.9-4.6-7.6-9.3-11.2-14.2l-0.9-0.1l-0.4-0.4l0.1-1l-0.3-0.4l-0.3-0.3l-4.3-6.2l-0.4-0.4l-0.3-0.4
		c0-0.1-0.1-0.3-0.1-0.4l-1.1-0.7l-0.3-0.4l-0.4-1.1l-2.2-3.2l-0.6,0.1h-0.1c-0.6,1-1.1,1.9-1.6,2.9v0.6l-0.1,1.4l-0.6,0.6l-1.6,1.4
		l-0.3,0.9l-0.7,1l-1.1,1.3l-0.9,1.3l-0.6,1l-0.9,1.7l-0.6,1.7l-0.4,0.7l-0.4,1.1l-0.3,0.7l0.4,1.1l-0.4,0.6l-1.6,0.4l-1,1.1
		l-1.7,1.3c-4,6-8.3,11.8-12.5,17.7l-1.1,2.9l-4.6,5.3l-0.4,0.7h-0.1l-5,6.6l0.1,0.1l-0.1,0.3l-0.7,1.1l-2.7,3.2l-1.6,1.7l-0.7,0.9
		v0.3l-1.3,1.9l-0.9,1.1l-0.6,1.3l-0.3,0.9l-0.9,0.4l-0.7,0.3l-0.4,0.9l-0.3,0.4v0.7l-0.3,0.1l-0.1,0.3l-0.7,1l-1.7,1.3l-0.9,0.3
		l-0.7,0.4l-0.1-0.1l-3,3.4l-1.9,3.6L9.6,185l-1,1l-1.3,0.4l-2.7,2.7l-3.4,1l-0.7-0.3l-0.3-0.7l0.6-2.3v-0.6l0.6-2.7l-0.4-0.7
		l-0.3-1L0.4,182L0,181.6h0.6l0.3-0.6v-1.1l0.3-1.6L3,175l0.6-4.9l0.9-1.7l0.6-2.2c0.4-1.6,1.4-3.3,2.7-5.3v-0.3l0.6-1h0.1l1.4-2.2
		v-0.1l1-1l-0.1-0.3l0.3-0.6l0.1-1l0.6-0.9l0.1-0.1v-0.1l0.3-0.3l0.1-0.4l-0.1-0.3h0.1l0.6-0.6h0.3l0.3-0.1l0.3-0.3l1.1-1v-0.7
		l0.6-0.9l0.7-0.6l1.3-0.6l1.1-1l0.1-0.1l2.2-2.6l0.1-0.3l1.1-1.6l1.6-1.9l6.3-5.7l1.9-2.2l1.1-1l1-1l0.6-0.3l1.7-2.4l1.3-0.7l1-0.9
		l3.2-3.2l0.6-0.7l3.9-3.7l0.4-0.7l0.6-0.6l0.9-1l2.4-2.2l2.3-2.6l0.4-0.7l2-1.9l2.7-2.9l1.4-0.7l1-0.6l0.1,0.1l1.9-2.3l3.9-3.2
		v-0.4l0.3,0.1l1-0.9v-0.1c-1-0.9-1.7-1.6-2.3-2.9h-0.1l-0.4-0.7V94l-1-1.3l-0.7-1.4l-0.1-1.3l-0.9-1.3l-0.3-0.7l-0.3-0.1l-0.4-0.1
		l-0.4-0.7l-0.3-0.1l-0.4-0.3l-0.6-1.1h-0.1v-0.3l0.1-0.1L59.3,84l-0.4-0.7L59,83l-0.1-0.1l-0.6-1.7v-1c-0.9-1.4-1.1-2.7-1.1-3.7
		c-0.1,0-0.1,0-0.1-0.1h0.1v-0.4c0-0.4,0.3-0.7,0.9-0.9v-0.3l0.4-0.9l0.6-0.6l0.9,0.1l0.7,1.3l0.4,0.9l0.9-0.4l1.4-0.3l1.9,1.9
		l0.9,2.7l0.3,0.9l-0.1,2.3l-0.7,2.4l0.3-0.1l0.1,0.4l-0.3,0.3l-0.1,0.4l0.1,0.7l0.3,0.7l0.7,2l1.1,2l1,2.4l0.9,1.1l4.2-6.9
		l-0.1,0.1l1-2.3v-0.4l0.4-0.3l0.3-0.7l1.4-2.3l0.1-0.7l1.4-1.6l4.3-7.6l2.6-5.7l0.4-1.4h0.6l0.3-2.2l1.3-3.2v-0.4l0.6-0.6l1.9-4
		l0.9-2.9l-0.1-1l1.3-1.1l-0.1-1l2.7-5l0.3-1.4l0.9-2.3l0.1-1.4l-0.6,1l-1,2.3l-0.4,0.3h-1.1l-0.3-0.7l0.3-0.4l2.4-2.9v-0.6l0.1,0.1
		l0.4-0.9l0.4-1.1h-0.1l-1.1-0.3c-0.6-0.3-0.4-2.2-0.4-2.2l0.6-0.9l0.6-1.1l2.3-2.9l0.6-1.7l0.4-1.4l0.7-1.1l0.6-0.9l0.6-0.1
		l0.1-0.4l0.3-0.3l0.6-1.7l1-0.6l0.3-0.6l1.9-3l3.4-2.3l0.3,0.3l1,0.9l0.1,3.3l-1.3,4l-1.1,2.3l0.3-0.3h0.3v0.1l0.9-0.4l0.1-0.1
		l0.7-0.1l0.4-0.1l0.6,0.4l0.4,0.6L111.2,26z M51.1,116.1c-2,1.9-4,3.7-5.9,5.7l-2,2l-0.4,0.7l-6.3,6.9l-0.1,0.6l-0.7,0.1l-4.7,5
		l-0.9,1l-0.3,0.7l-0.1,0.7l-1.4,1l-1.1,1.1l-2.6,3.2l-0.1,0.3l-0.9,1.3l-0.6,0.7l-0.6,1.3l-0.3,0.7l-0.3,0.4l-1,1l-1.3,1.6l-2.7,3
		l-2.9,4.6l-2,4.2l-1.4,2.3c-0.6,1.7-1,3.4-1.4,5.3l0.3,0.1l-0.3,0.6H8.8v0.6l0.9,2.4v0.7l0.7-0.3l6.9-7.8l1.6-2.2l8.6-9.3l2-2.4
		l0.9-0.7l2-2.9l1-1l7.2-10.5c0.3-0.4,0.4-0.9,0.7-1.1l1.4-2.2l1-1.1c1.7-2.6,3.6-5,5.3-7.8l0.4-1.3l1-0.7c4-6,7.9-11.9,11.8-18.2
		l-1.1,0.9l-1,0.9l-0.7,0.9l-3,2.3L51.1,116.1z"/>
	<path class="st0" d="M180,126.4l-1.4,1.1l-2,0.9l-1.3,0.3l-0.7,0.4l-0.1,0.3l-0.4,0.3l-1.9,0.7l-1.3,0.6l-0.1,0.3l-0.4,0.3l-1,0.3
		l-2.2,1.1l-0.9,0.4l-2.2,1.4l-1.1,0.4l-0.9,0.4l-1.6,0.9l-1.3,0.6l-0.9,0.3l-2.3,0.4l-2,1l-1.7,0.3l-2.4-0.1l-1.6,0.4l-2.7-0.6
		c-1.4-0.4-2.6-1.1-3.3-2.3l-0.6-0.6l0.1-0.9c-0.1-1.1-0.1-2.4,0.4-3.9v-0.6l1-2.9l1.1-2.9l0.3-1l1-1.7l1-1.1l0.3-0.6l0.9-0.7
		c0.3-0.4,0.6-0.9,1-1.4l1.1-1.7l0.4-1l0.4-0.9l0.4-0.4l0.4-1.4l1.3-1.3l0.9-0.4l0.6-0.9l1.3-1.1l2.7-4.6l0.7-2.2l1.6-2l1-0.9
		l0.6-1.1l0.6-0.4l0.3-1.4v-0.7l0.7-1.1l1-0.7l0.4-0.3h0.3v-0.3l1-1l1-0.6c0.6-0.7,1.3-1.3,2.3-1.1c0.1,0,0.3,0.1,0.4,0.3l0.4-0.3
		l0.1-0.3l0.9-0.1l1.1,0.1l1,0.7v0.7l-0.3,1.6l-1,1.6l-1.4,1.6l-0.4,0.4l-0.6,0.4h-0.3l-0.9,0.3l-2.4,2.3l-0.3,0.7l-0.1,0.3l-2,2
		c-0.1,0.3-0.4,0.4-0.6,0.6l-0.1,0.9l-1.3,1.1l-1,1.4l-1.1,1.1l-0.3,0.6l-1,0.7l-0.6,1l-0.3,0.4l-1.7,2l-2.2,2.4l-1,1.4l-0.9,1.3
		l-1.6,2.7c-1.1,1.3-1.3,1.4-1.4,1.7l-1,2.6l-0.3,1.1l-1.1,2.4l-0.9,3v0.9l-0.3,1.7c0.3,1.3,0.4,1.4,0.4,1.6l0.6,0.3l0.9-0.1h0.4
		l1,0.1l0.9-0.3l0.9-0.1l0.6,0.3h0.7l3-0.7h0.4c0.7-0.3,1.6-0.4,2.4-0.7l0.7-0.4l1.7-1l1.3-0.7l2.9-0.7l2.3-0.9l1.3-0.3l5-2.4
		l0.3-0.6h0.9l2.6-1.3l0.1-0.1l0.3-0.4l1.1-0.6h0.4l0.4-0.6l0.9-0.3l1.1-0.6l1.4-0.9l1.3-0.7l1.6-1.1l0.4-0.4l1.7-1l0.7-0.3l0.6-0.4
		l3-1.7h0.4l1-0.7l0.7-0.3l0.7-0.4c0.3,0,0.3-0.1,0.4-0.1l0.7-0.7l1-0.4l0.6-0.6l1-0.6l1.4-0.7l0.7-0.4c1.1-0.7,2.4-1.6,4-2.4
		l0.3-0.6h0.4l0.4,0.1l0.4,0.9l-0.4,0.6l-0.4,0.3l-0.9,0.4l-0.3,0.4l-0.3-0.1h-0.1v0.3l-1.9,1h-0.4l-4.5,2.7l-1.3,1l-1.3,1.1
		l-1.3,0.4l-0.9,0.4c-2.7,1.9-5.3,3.6-7.8,5l-0.6,0.7l-0.4,0.3l-1.7,0.6l-0.4,0.3l-0.3,0.3L180,126.4z M192.4,60.3l-1.1,2l-0.6,0.7
		l-0.4,0.6v0.1l-1.4,0.3l-1.3,0.3l-1.1,0.4l-1.1,0.9l-0.1,0.1l-0.6,0.3l-0.7,1.1l-1.4,0.4l-1.1,2.2l-1.4,0.4l-0.6,0.7l-1,1.1v0.3
		l-1.6,1l-0.1-1.1l0.6-0.4c0-0.1,0.3-0.4,0.3-0.9l1.7-2.4l-0.3-1.1l1-2.2l0.4-0.9l1.4-1.7l1-1.1l0.3-0.1l1.6-1.6L185,59l1.1-0.7
		l0.9-1.1h0.1l0.6-0.6h-0.3l0.7-0.3v0.3l1-1l1.4-0.4l1.1,1.1l1.4,0.6l-0.4,1.6l0.3,0.7L192.4,60.3z"/>
	<path class="st0" d="M265.8,130.3l-0.3-1c-0.1-0.1-0.3-0.3-0.3-0.4c-0.4-0.6-0.4-1.4-0.3-2.4V126l0.3-1.4l0.9-2.2l0.7-1.4l0.7-0.9
		l1.3-1.4l1.4-2.2l1.1-1.4l0.3-0.4l0.1-0.6l1.3-1.7l0.4-0.9l0.3-0.7v-0.6l-0.4,0.3h-0.3l-1.1,0.6l-0.6,0.1l-3.4,2l-1.1,1l-1,1
		l-1,0.3l-1,0.4l-2.9,1.6l-0.6,0.9l-1.7,1.1l-0.9,0.4l-2.6,1.7l-2.9,2.2l-0.4,0.6l-0.6,0.7l-0.9,0.3l-0.3,0.1
		c-0.6,0.4-1.1,0.7-1.6,1.1l-0.7,0.4l-1,0.6l-1.4,1.1l-0.9,0.4c-2.2,1.4-4,2.3-5,2.3h-0.1v0.1l-0.7,0.1l-0.6-0.4l-0.6-0.6l-0.9-1.6
		c-0.4-0.7-0.4-2,0.1-3.7l0.4-3l0.1-0.9l0.7-1.4l0.4-0.3l1.3-2.6l0.4-0.6l2.3-2.9l0.9-1.4l0.3-0.3l0.1-0.4l1.4-1.6l0.4-1l0.6-0.7
		l3-4.9l2.9-4.3l2-2.4l2.7-3.4h-2.2L252,93l-0.6,0.1l-0.3-0.1c0,0.1-0.1,0.1-0.1,0.1l-2.4,1.3l-1.7,1.4l-4.9,2.4l-1.3,1l-5,3.4
		l-3,1.4l-0.4,0.1l-1,0.9l-0.1,0.1l-0.6,0.3l-4.3,3l-1.9,1.3l-1.3,1.4l-2.9,2.6l-2.2,1.4c-0.4,0.4-0.9,0.7-1.3,1l-1,1.7l-0.4,0.4
		l-1.1,1.3l-1.1,0.4l-0.4,0.7h-0.3l-0.3,0.3h-0.4l-0.6,0.7l-0.3,0.1l-3.9,3.4l-0.1,0.4l-0.7,0.6l-0.6,0.4l-0.3,0.1l-1.9,1.6
		l-0.9,0.9h-0.1l-1.6,1.4v0.4h-0.3l-0.3,0.1l-1.4,1.6l-1.9,1.4l-0.7,0.9l-0.1,0.3l-1.4,1.4l-1,1.1l-0.7,1.3l-0.4,0.7l-0.7,0.3
		l-0.4,0.1l-0.1,0.1l-0.1,0.4l-0.1,0.3l-0.7,0.4l-0.1,0.3v0.3l-0.3,0.4v0.4l-0.6,0.6v0.1l-0.3-0.1l-0.4,0.1l-0.3,0.3h-0.1l-0.1,0.1
		l-0.9,0.6l-1.7,0.4h-0.3v-0.1l-1,0.3H183l-0.7-0.1l-0.3-0.6l-0.9,0.4l-0.3-0.1l-0.6-0.9l-0.4-0.6l0.1-1.1l0.4-1.3l0.4-0.4l-0.1-0.1
		l0.1-0.6l0.7-0.6l0.6-0.7l1.6-2.7l3-3.2l0.1-0.1l0.1-0.6l0.4-0.1l1.6-2.4l1-1.1l0.9-1.3l0.3-0.6l0.4-0.6l1-1.4v-0.3l0.7-0.4
		l0.4-0.7l0.9-1.3l2.6-3.6l0.9-1l0.6-1l2.7-3.4l0.7-1.1l2.6-3.3l1.7-2.4l0.4-0.7l0.4-1.4l0.3-0.9l0.7-0.6l0.7-0.3l0.3-0.9l0.3-0.3
		v-0.4l-0.1-0.3l0.3-0.4v-0.6l0.4-0.7H210l0.1-0.1l0.1,0.1l0.4-0.3l0.1-0.4h0.3v-0.1l0.9-0.7l0.4-0.1l1.1-2.2l1-1l0.6-1.1l-0.3-0.1
		l0.7-1l0.3-0.4l0.3-0.6v-0.1l-0.1-0.1v-0.1h0.1l0.1-1.3l0.3-1.4l0.3-0.4l0.9-1.4l1.4-0.9l0.6,0.3v-0.6l0.4-0.3h0.4l0.3-0.4l0.7-0.1
		l1.6-0.1h0.9l0.7,0.3l0.4,0.4v0.9l-0.7,1.1v0.7l-0.3,0.7l-1.1,3l-2.3,1.6l-1.6,1.1l-0.1,0.1l-1.6,2.6v0.3l-0.6,0.9l-0.1,1l-0.4,1
		l-0.3,0.6l-0.6,0.4l-0.1,0.1l-0.3,0.1l-0.1,0.3h-0.3l-0.1,0.6l-0.6,0.6l-0.9,0.7l-1.1,1.7l-0.9,1.1l-0.6,1.3l-0.4,0.4l-1.6,1.1
		l-1.7,2.2l-1,0.6l-1.6,2v0.3l-1,1l-1.3,1.9l-0.4,1.3l-0.6,0.9l-1,1.3l-0.1,0.4l-1.1,0.9l-1.3,1.6l-1.7,2.4l-1.6,2.3l-1.4,1.9
		l-2.6,3.7l-1,2.6l-0.3,0.6l0.1-0.1h0.6l0.4-0.3h0.4l0.3-0.1l0.3-0.3l0.9-0.4l0.1-0.7l0.7-0.9l0.7-0.4l1.4-0.6l1.3-0.9l1.4-1.3
		l0.3-0.3l0.3-0.1l0.9-0.7l1.7-1.7l3.3-2.9l1.1-0.7l3-2.3l0.9-1l0.3-0.3l0.9-0.4l2-1.4l1-1.4l0.6-0.1l2-1.4l1.3-1.3l0.7-0.4l0.1-0.3
		l2.7-2.6l1-0.6l1.6-1.4l0.4-0.6l0.9-0.6l1.3-1.1l1.1-0.7l1.4-1.6l3.7-2.9l1.1-1l0.9-1l2.6-1.1l1.9-1.1l0.6-0.9l0.3,0.1l0.6-0.4
		l0.6-0.1l1-0.9l0.3-0.3l1-0.4l1.3-0.9l1.7-0.7l2.2-1.3l0.3-0.6l2.2-1.1l4.2-0.9l3.2-1.3l1.4-0.4l0.9-0.3l0.4-0.3l0.3-0.1h0.3
		l-0.3,0.3l1.3,0.1l0.6,0.1l0.9,1.4l-0.3,1.4l-0.4,0.6c-0.9,1.7-2.6,3.6-3.6,5c-0.3,0.4-0.6,0.6-0.7,0.9l-1.1,1l-0.9,1.4l-2.3,2.3
		l-1.6,1.9l-0.3,0.4l-1.1,1.3l-3.9,6.3l-1.9,3l-1.4,3.4h-0.1v0.1l-1.6,2.9l-0.6,2l-0.4,0.6l-0.3,0.3l-0.4,1l-0.1,0.3l0.1,1l0.3,1.1
		l0.1,0.7l0.3,0.6l0.1,0.4l0.1,0.1l2.2-0.9l0.6-0.1c0.9-0.6,1.7-1.3,2.7-2.2l0.7-0.7l0.7-0.3c1.1-0.9,2.2-1.9,3.3-2.9l1.7-1.3
		l0.9-0.7l3.4-2.4l6.2-4.6l0.6-0.9l0.6-0.4l1-0.4h0.6c0.3-0.3,0.6-0.4,0.9-0.6l0.4-0.4l0.1-0.3v-0.1l0.3-0.3l0.1-0.4V108l0.7-0.4
		l-0.1-0.1h0.1l0.3,0.1l0.4-0.1l0.3-0.3h0.3l1.1-0.4h1l0.7-0.3l0.4,0.1l-0.1,0.1l1-0.1l0.1-0.1l0.7,0.1l0.7,0.3l0.4,0.4v0.7
		l-0.1,0.1h0.1l-0.3,0.3l-0.9,2.4v0.4l-0.7,1.7l-1.3,1.7l-0.9,2.2l-0.4,0.9l-0.9,1.1l-1.7,2.2l-0.6,1l-0.9,1.4l-0.6,1.1l-0.4,1.4
		l0.3,1.6l1,0.9c1.1,0.6,3,0.9,5,0.6l0.9-0.1v0.1c0.1,0,0.3-0.1,0.4-0.1l0.1-0.1l0.4-0.3l1.7-0.1l1.4-0.6l0.9-0.4l0.7,0.3l0.4-0.3
		l0.1-0.1l0.9-0.1l3-1.6l1.9-1.1l0.9-0.1l0.9-0.7h0.4l2-1.1l0.9-0.1l0.9-0.4l1.9-0.9l1.9-1l4-2l0.4-0.3l5.2-2.6l0.6-0.4l1.9-0.7
		l0.7-0.4l1.9-1.1l1-0.7l0.6-0.1l0.4,0.7l-0.1,0.6l-0.7,0.3l-0.3,0.1l-0.7,0.4l-0.3,0.4l-0.3,0.3l-0.9,0.1l-4.3,2.7l-1.1,0.9h-0.4
		l-1.7,0.9l-1.3,0.9l-0.7,0.3l-0.3,0.3l-0.4,0.1l-2.4,1.3l-0.9,0.4l-0.7,0.4l-0.9,0.6l-0.6,0.3l-0.6,0.4l-1.3,0.7l-0.3,0.1l-0.7,0.3
		l-0.6,0.4l-1.3,0.6l-2,0.7l-2.6,1.1l-1.1,0.7l-0.6-0.1l-1.4,0.6c-0.4,0.1-0.9,0.4-1.4,0.6l-0.3,0.1l-0.7,0.1l-1.7,0.4v0.1h-0.3
		l-0.9,0.4l-0.9,0.1h-0.7c-1,0.3-1.9,0.4-2.9,0.4h-1.4c-0.6,0-1.1-0.1-1.7-0.3h-0.4L265.8,130.3z"/>
	<path class="st0" d="M375.2,130.3l-0.3-1c-0.1-0.1-0.3-0.3-0.3-0.4c-0.4-0.6-0.4-1.4-0.3-2.4V126l0.3-1.4l0.9-2.2l0.7-1.4l0.7-0.9
		l1.3-1.4l1.4-2.2l1.1-1.4l0.3-0.4l0.1-0.6l1.3-1.7l0.4-0.9l0.3-0.7v-0.6l-0.4,0.3h-0.3l-1.1,0.6l-0.6,0.1l-3.4,2l-1.1,1l-1,1
		l-1,0.3l-1,0.4l-2.9,1.6l-0.6,0.9l-1.7,1.1l-0.9,0.4l-2.6,1.7l-2.9,2.2l-0.4,0.6l-0.6,0.7l-0.9,0.3l-0.3,0.1
		c-0.6,0.4-1.1,0.7-1.6,1.1l-0.7,0.4l-1,0.6l-1.4,1.1l-0.9,0.4c-2.2,1.4-4,2.3-5,2.3h-0.1v0.1l-0.7,0.1l-0.6-0.4l-0.6-0.6l-0.9-1.6
		c-0.4-0.7-0.4-2,0.1-3.7l0.4-3l0.1-0.9l0.7-1.4l0.4-0.3l1.3-2.6l0.4-0.6l2.3-2.9l0.9-1.4l0.3-0.3l0.1-0.4l1.4-1.6l0.4-1l0.6-0.7
		l3-4.9l2.9-4.3l2-2.4l2.7-3.4h-2.2l-2.7-0.4l-0.6,0.1l-0.3-0.1c0,0.1-0.1,0.1-0.1,0.1l-2.4,1.3l-1.7,1.4l-4.9,2.4l-1.3,1l-5,3.4
		l-3,1.4l-0.4,0.1l-1,0.9l-0.1,0.1l-0.6,0.3l-4.3,3l-1.9,1.3l-1.3,1.4l-2.9,2.6l-2.2,1.4c-0.4,0.4-0.9,0.7-1.3,1l-1,1.7l-0.4,0.4
		l-1.1,1.3l-1.1,0.4l-0.4,0.7h-0.3l-0.3,0.3h-0.4l-0.6,0.7l-0.3,0.1l-3.9,3.4L316,126l-0.7,0.6l-0.6,0.4l-0.3,0.1l-1.9,1.6l-0.9,0.9
		h-0.1L310,131v0.4h-0.3l-0.3,0.1l-1.4,1.6l-1.9,1.4l-0.7,0.9l-0.1,0.3l-1.4,1.4l-1,1.1l-0.7,1.3l-0.4,0.7l-0.7,0.3l-0.4,0.1
		l-0.1,0.1l-0.1,0.4l-0.1,0.3l-0.7,0.4l-0.1,0.3v0.3l-0.3,0.4v0.4l-0.6,0.6v0.1l-0.3-0.1l-0.4,0.1l-0.3,0.3h-0.1l-0.1,0.1l-0.9,0.6
		l-1.7,0.4h-0.3v-0.1l-1,0.3h-0.7l-0.7-0.1l-0.3-0.6l-0.9,0.4l-0.3-0.1l-0.6-0.9l-0.4-0.6l0.1-1.1l0.4-1.3l0.4-0.4l-0.1-0.1l0.1-0.6
		l0.7-0.6l0.6-0.7l1.6-2.7l3-3.2l0.1-0.1l0.1-0.6l0.4-0.1l1.6-2.4l1-1.1l0.9-1.3l0.3-0.6l0.4-0.6l1-1.4v-0.3l0.7-0.4l0.4-0.7
		l0.9-1.3l2.6-3.6l0.9-1l0.6-1l2.7-3.4l0.7-1.1l2.6-3.3l1.7-2.4l0.4-0.7l0.4-1.4l0.3-0.9l0.7-0.6l0.7-0.3l0.3-0.9l0.3-0.3v-0.4
		l-0.1-0.3l0.3-0.4v-0.6l0.4-0.7h-0.1l0.1-0.1l0.1,0.1l0.4-0.3l0.1-0.4h0.3v-0.1l0.9-0.7l0.4-0.1l1.1-2.2l1-1l0.6-1.1l-0.3-0.1
		l0.7-1l0.3-0.4l0.3-0.6v-0.1l-0.1-0.1v-0.1h0.1l0.1-1.3l0.3-1.4l0.3-0.4l0.9-1.4l1.4-0.9l0.6,0.3v-0.6l0.4-0.3h0.4l0.3-0.4l0.7-0.1
		l1.6-0.1h0.9l0.7,0.3l0.4,0.4v0.9l-0.7,1.1v0.7l-0.3,0.7l-1.1,3l-2.3,1.6l-1.6,1.1l-0.1,0.1L327,96v0.3l-0.6,0.9l-0.1,1l-0.4,1
		l-0.3,0.6l-0.6,0.4l-0.1,0.1l-0.3,0.1l-0.1,0.3h-0.3l-0.1,0.6l-0.6,0.6l-0.9,0.7l-1.1,1.7l-0.9,1.1l-0.6,1.3l-0.4,0.4l-1.6,1.1
		l-1.7,2.2l-1,0.6l-1.6,2v0.3l-1,1l-1.3,1.9l-0.4,1.3l-0.6,0.9l-1,1.3l-0.1,0.4L308,121l-1.3,1.6L305,125l-1.6,2.3l-1.4,1.9
		l-2.6,3.7l-1,2.6l-0.3,0.6l0.1-0.1h0.6l0.4-0.3h0.4l0.3-0.1l0.3-0.3l0.9-0.4l0.1-0.7l0.7-0.9l0.7-0.4l1.4-0.6l1.3-0.9l1.4-1.3
		l0.3-0.3l0.3-0.1l0.9-0.7l1.7-1.7l3.3-2.9l1.1-0.7l3-2.3l0.9-1l0.3-0.3l0.9-0.4l2-1.4l1-1.4l0.6-0.1l2-1.4l1.3-1.3l0.7-0.4l0.1-0.3
		l2.7-2.6l1-0.6l1.6-1.4l0.4-0.6l0.9-0.6l1.3-1.1l1.1-0.7l1.4-1.6l3.7-2.9l1.1-1l0.9-1l2.6-1.1l1.9-1.1l0.6-0.9l0.3,0.1l0.6-0.4
		l0.6-0.1l1-0.9l0.3-0.3l1-0.4l1.3-0.9l1.7-0.7l2.2-1.3l0.3-0.6l2.2-1.1l4.2-0.9l3.2-1.3l1.4-0.4l0.9-0.3l0.4-0.3l0.3-0.1h0.3
		l-0.3,0.3l1.3,0.1l0.6,0.1l0.9,1.4l-0.3,1.4l-0.4,0.6c-0.9,1.7-2.6,3.6-3.6,5c-0.3,0.4-0.6,0.6-0.7,0.9l-1.1,1l-0.9,1.4l-2.3,2.3
		l-1.6,1.9l-0.3,0.4l-1.1,1.3l-3.9,6.3l-1.9,3l-1.4,3.4h-0.1v0.1l-1.6,2.9l-0.6,2l-0.4,0.6l-0.3,0.3l-0.4,1l-0.1,0.3l0.1,1l0.3,1.1
		l0.1,0.7l0.3,0.6l0.1,0.4l0.1,0.1l2.2-0.9l0.6-0.1c0.9-0.6,1.7-1.3,2.7-2.2l0.7-0.7l0.7-0.3c1.1-0.9,2.2-1.9,3.3-2.9l1.7-1.3
		l0.9-0.7l3.4-2.4l6.2-4.6l0.6-0.9l0.6-0.4l1-0.4h0.6c0.3-0.3,0.6-0.4,0.9-0.6l0.4-0.4l0.1-0.3v-0.1l0.3-0.3l0.1-0.4V108l0.7-0.4
		l-0.1-0.1h0.1l0.3,0.1l0.4-0.1l0.3-0.3h0.3l1.1-0.4h1l0.7-0.3l0.4,0.1l-0.1,0.1l1-0.1l0.1-0.1l0.7,0.1l0.7,0.3l0.4,0.4v0.7
		l-0.1,0.1h0.1l-0.3,0.3l-0.9,2.4v0.4l-0.7,1.7l-1.3,1.7l-0.9,2.2l-0.4,0.9l-0.9,1.1l-1.7,2.2l-0.6,1l-0.9,1.4l-0.6,1.1l-0.4,1.4
		l0.3,1.6l1,0.9c1.1,0.6,3,0.9,5,0.6l0.9-0.1v0.1c0.1,0,0.3-0.1,0.4-0.1l0.1-0.1l0.4-0.3l1.7-0.1l1.4-0.6l0.9-0.4l0.7,0.3l0.4-0.3
		l0.1-0.1l0.9-0.1l3-1.6l1.9-1.1l0.9-0.1l0.9-0.7h0.4l2-1.1l0.9-0.1l0.9-0.4l1.9-0.9l1.9-1l4-2l0.4-0.3l5.2-2.6l0.6-0.4l1.9-0.7
		l0.7-0.4l1.9-1.1l1-0.7l0.6-0.1l0.4,0.7l-0.1,0.6l-0.7,0.3l-0.3,0.1l-0.7,0.4l-0.3,0.4l-0.3,0.3l-0.9,0.1l-4.3,2.7l-1.1,0.9H413
		l-1.7,0.9l-1.3,0.9l-0.7,0.3l-0.3,0.3l-0.4,0.1l-2.4,1.3l-0.9,0.4l-0.7,0.4l-0.9,0.6l-0.6,0.3l-0.6,0.4l-1.3,0.7l-0.3,0.1l-0.7,0.3
		l-0.6,0.4l-1.3,0.6l-2,0.7l-2.6,1.1l-1.1,0.7l-0.6-0.1l-1.4,0.6c-0.4,0.1-0.9,0.4-1.4,0.6l-0.3,0.1l-0.7,0.1l-1.7,0.4v0.1h-0.3
		l-0.9,0.4l-0.9,0.1h-0.7c-1,0.3-1.9,0.4-2.9,0.4h-1.4c-0.6,0-1.1-0.1-1.7-0.3h-0.4L375.2,130.3z"/>
	<path class="st0" d="M447.3,126.4l-1.4,1.1l-2,0.9l-1.3,0.3l-0.7,0.4l-0.1,0.3l-0.4,0.3l-1.9,0.7l-1.3,0.6l-0.1,0.3l-0.4,0.3
		l-1,0.3l-2.2,1.1l-0.9,0.4l-2.2,1.4l-1.1,0.4l-0.9,0.4l-1.6,0.9l-1.3,0.6l-0.9,0.3l-2.3,0.4l-2,1l-1.7,0.3l-2.4-0.1l-1.6,0.4
		l-2.7-0.6c-1.4-0.4-2.6-1.1-3.3-2.3l-0.6-0.6l0.1-0.9c-0.1-1.1-0.1-2.4,0.4-3.9v-0.6l1-2.9l1.1-2.9l0.3-1l1-1.7l1-1.1l0.3-0.6
		l0.9-0.7c0.3-0.4,0.6-0.9,1-1.4l1.1-1.7l0.4-1l0.4-0.9l0.4-0.4l0.4-1.4l1.3-1.3l0.9-0.4l0.6-0.9l1.3-1.1l2.7-4.6l0.7-2.2l1.6-2
		l1-0.9l0.6-1.1l0.6-0.4l0.3-1.4v-0.7l0.7-1.1l1-0.7l0.4-0.3h0.3v-0.3l1-1l1-0.6c0.6-0.7,1.3-1.3,2.3-1.1c0.1,0,0.3,0.1,0.4,0.3
		l0.4-0.3l0.1-0.3l0.9-0.1l1.1,0.1l1,0.7v0.7l-0.3,1.6l-1,1.6l-1.4,1.6l-0.4,0.4l-0.6,0.4h-0.3l-0.9,0.3L434,100l-0.3,0.7l-0.1,0.3
		l-2,2c-0.1,0.3-0.4,0.4-0.6,0.6l-0.1,0.9l-1.3,1.1l-1,1.4l-1.1,1.1l-0.3,0.6l-1,0.7l-0.6,1l-0.3,0.4l-1.7,2l-2.2,2.4l-1,1.4
		l-0.9,1.3l-1.6,2.7c-1.1,1.3-1.3,1.4-1.4,1.7l-1,2.6l-0.3,1.1l-1.1,2.4l-0.9,3v0.9l-0.3,1.7c0.3,1.3,0.4,1.4,0.4,1.6l0.6,0.3
		l0.9-0.1h0.4l1,0.1l0.9-0.3l0.9-0.1l0.6,0.3h0.7l3-0.7h0.4c0.7-0.3,1.6-0.4,2.4-0.7l0.7-0.4l1.7-1l1.3-0.7l2.9-0.7l2.3-0.9l1.3-0.3
		l5-2.4l0.3-0.6h0.9l2.6-1.3l0.1-0.1l0.3-0.4l1.1-0.6h0.4l0.4-0.6l0.9-0.3l1.1-0.6l1.4-0.9l1.3-0.7l1.6-1.1l0.4-0.4l1.7-1l0.7-0.3
		l0.6-0.4l3-1.7h0.4l1-0.7l0.7-0.3l0.7-0.4c0.3,0,0.3-0.1,0.4-0.1l0.7-0.7l1-0.4l0.6-0.6l1-0.6l1.4-0.7l0.7-0.4
		c1.1-0.7,2.4-1.6,4-2.4l0.3-0.6h0.4l0.4,0.1l0.4,0.9l-0.4,0.6l-0.4,0.3l-0.9,0.4l-0.3,0.4l-0.3-0.1h-0.1v0.3l-1.9,1h-0.4l-4.5,2.7
		l-1.3,1l-1.3,1.1l-1.3,0.4l-0.9,0.4c-2.7,1.9-5.3,3.6-7.8,5l-0.6,0.7l-0.4,0.3l-1.7,0.6l-0.4,0.3l-0.3,0.3L447.3,126.4z
		 M459.7,60.3l-1.1,2l-0.6,0.7l-0.4,0.6v0.1l-1.4,0.3l-1.3,0.3l-1.1,0.4l-1.1,0.9l-0.1,0.1l-0.6,0.3l-0.7,1.1l-1.4,0.4l-1.1,2.2
		l-1.4,0.4l-0.6,0.7l-1,1.1v0.3l-1.6,1l-0.1-1.1l0.6-0.4c0-0.1,0.3-0.4,0.3-0.9l1.7-2.4l-0.3-1.1l1-2.2l0.4-0.9l1.4-1.7l1-1.1
		l0.3-0.1l1.6-1.6l0.6-0.7l1.1-0.7l0.9-1.1h0.1l0.6-0.6h-0.3l0.7-0.3v0.3l1-1l1.4-0.4l1.1,1.1l1.4,0.6l-0.4,1.6l0.3,0.7L459.7,60.3z
		"/>
	<path class="st0" d="M466.3,117.7l0.4-0.7l0.1-0.1l0.9-1.4l1-1.7l1.6-2.3l0.4-0.9l3-4.2l0.7-1.1l0.4-0.6l1.7-3l1.4-2.3l1.3-2.2
		l0.6-1.7v-0.9h-0.3v-0.3l0.3-0.3l-0.3-2.3l0.3-2.7l0.3-0.9l1.1-3.3L484,83l1.6-0.3l1.4,0.9l0.3,0.9v1.1l0.6-0.3l-0.3,0.4h-0.3
		l-0.3,0.3l-0.3,0.9c0,0.1,0.1,0.3,0.1,0.4c-0.3,1.7-1.3,3.4-2.2,5l-0.7,3.9l-1.1,1.6l-0.9,0.6l-1.4,2l-0.9,1.7l-0.7,1.3l-0.6,1.4
		l-1.1,0.9l-0.3,0.6l-0.3,0.9v0.3l-0.6,0.3l-3,4.2l-0.3,1.1l-1.7,2.2l-0.9,2l-3,4.7l-0.6,1.1l-1.6,2.3v0.1l-0.3,0.7l-0.3,0.1
		l-0.4,0.9l-0.6,1.3c0.7-0.6,1-1.1,1.6-1.7l0.4-0.6l0.1-0.1l0.4-0.9l0.9-0.6l0.4-0.4l0.9-1l0.9-0.6l1.3-1.3l0.7-0.4
		c1.9-1.7,3.7-3.6,5.7-5.3l0.7-0.9l0.3-0.4l1.3-0.9l0.9-0.7l2.3-1.6l0.4-0.4l3.3-2.2l0.7-0.3c1.3-0.6,2.4-1.3,3.6-1.9
		c0.9-0.4,3-1.3,4.7-1.1v-0.1l2.7,0.1l1,1.1l1.4,1.3l0.4,2.3v1l-0.1,1.4l-0.3,1.7l-0.1,1v1.1l-0.9,3.6v0.3l1,1.3l0.4,1.7l0.3,0.3
		l-0.3,0.3l-0.3,1v1.1l0.6,1l0.6,0.6l1.1,1c2,0.1,4.5-0.1,7-0.6l2.9-1.1l0.9-0.1l1.9-0.7l0.9-0.1l2.7-1l2-1.1l1.3-0.1l1.3-0.4
		l2.4-0.9c1.7-0.7,3.4-1.6,5.2-2.4l1.4-1l0.7-0.1l3.4-1.7l1-0.7l1.1-1l1.3-0.9l4-1.7l4.9-2.9l0.6-0.6l2-1.1h0.4v-0.3h0.4l1.3-0.9
		l0.3-0.3h0.9l0.4,0.6v0.6l-0.4,0.3l-0.7,0.3c-2.3,1.4-4.6,3-7,4.5l-1.1,1.1l-1,0.3l-1,0.6h-0.3l-1.7,1.1l-0.3,0.3l-0.6,0.1
		c-0.1,0-0.3,0.1-0.4,0.3l-0.3,0.3l-0.7,0.3h-0.1c-1.4,0.9-3,1.7-4.6,2.4l-2.3,1.3l-6,3l-0.6,0.1l-0.1,0.1l-1.9,1.6l-1.6,0.9l-2,0.3
		l-2.2,1.1l-1,0.4l-1.3,0.3l-1.7,0.3l-1,0.1l-0.6,0.3l-0.6,0.1l-0.4,0.1c-1.1,0.3-2.3,0.4-3.4,0.6l-1.9,0.1l-0.7,0.4l-0.6,0.1
		l-1.1-0.3l-0.9,0.3l-1.1-0.1h-0.3c-1.7,0.1-3.2-1.3-4.7-2c-0.9-0.4-1.6-1-1.9-1.9l-0.1-0.6c-0.1-0.7-0.1-1.4-0.1-2.3v-1.4l0.6-1.7
		l0.7-2.6h-0.1l0.3-0.3l1.4-5.2h-0.1l-0.3-0.3l0.6-1c0.3-2.2-0.1-3.9-2-4.3c-0.9-0.1-1.1-0.6-2.3-0.1L492,108l-1.1,0.9
		c-0.1,0-0.1,0.1-0.3,0.1l-3,2l-0.3,0.4l-0.4,0.3l-2.3,2.3l-1.1,0.6l-0.3,0.9l-4.5,3.3l-0.6,0.1l-1.1,0.7l-0.6,0.1l-0.6,1.1
		l-1.1,0.9l-0.4,0.3l-1.1,0.7l-1,0.9l-0.6,0.4l-0.6,1.1l-1.4,1.1l-1.3,1c-2.2,2.2-4.2,4.3-6.5,6.5l-0.6,0.9l-0.1-0.1l-1.3,1.1
		c-0.1,0-0.1,0-0.3,0.1l-0.1,0.3l-0.4,0.1l0.1,0.3v0.3l-0.4-0.4l-0.4,0.6l-0.7,0.1l-1.1-0.4l-0.6-1.3v-2.9l1-2.4l0.7-0.9l1.4-1.4
		l1.7-0.9v-0.4h0.1l0.3,0.1v-0.6l0.4-0.3l0.6-1.1l0.7-1.9l0.7-0.9l0.3-0.7l2.2-3.2L466.3,117.7z"/>
	<path class="st0" d="M556.6,112.5l0.3-0.7l0.1-1.3l0.7-3.2l1-2.6l1.1-2.4l0.6-2.7l0.1-0.9l0.3-0.1l-0.3-2.6h-0.3l0.4-0.7l-0.7-0.4
		l-0.1-0.3h-0.4v-0.1l-0.4,0.6l-0.3,0.9l-1.6,1.7l-1.4,0.6l-1.6,1l-1.6,0.4l-2,0.7h-0.7l-1-0.7v-1.9l0.4-1.1L551,94l2.7-2.7l3.7-1.3
		l2.9-0.3c1.7-0.6,2.7,0,3.3,1.1l0.3,0.1h-0.3c0.1,0.4,0.3,0.9,0.3,1.4l0.1,0.1H564c0.1,2-0.3,4.6-0.9,7.5l0.3,0.1h-0.3v0.6l0.1,0.4
		H563l-1,4c-1,3.7-2.3,7.5-3.7,10.9v0.6l-0.7,1.1l-0.4,1v0.1l-0.1,0.3l-1.6,3.3l-0.3,0.9l-0.4,1l-0.9,1.4l-1,1.6l-0.4,0.7v0.1
		l0.9,0.1h0.4l0.1-0.1h0.3l0.6-0.1l1.6-0.7l4-2l0.9-0.3l3.4-1.4l1-0.6l0.6-0.3h0.3l1.6-1l0.6-0.1l0.4,0.1l0.4-0.1l1.3-0.7l0.7-0.1
		h0.6l3.3-1.1l1.3-0.4c0.3,0,0.4-0.1,0.7-0.1l0.3-0.3l1-0.6l0.6-0.1l0.6,0.3c0.1,0,0.3-0.1,0.4-0.1c2.9-0.7,5-1.3,6.9-1.6l1.1-0.3
		c0.3-0.1,0.4,0,0.7-0.1l0.4-0.3l0.6,0.3l0.7-0.1l1.3-0.4h1.1l1.7-0.1h2.9l0.6,0.4l-0.4,0.4h-0.6c-0.7,0.1-1.3,0.3-1.7,0.3l-0.9,0.4
		l-1.3-0.1l-2.3,0.4l-2.7,0.3H588l-2.2,0.7l-2.4,0.4l-1,0.6l-2,0.6h-0.1l-0.1,0.1h-0.1c-0.3,0.1-0.6,0.1-0.7,0.3h-0.1l-1.1,0.3h-0.1
		L577,121l-0.4,0.3l-1,0.1h-0.3v0.1l-0.6,0.1c-0.1,0-0.3,0-0.4,0.1l-0.3,0.3h-0.1l-1.1,0.6l-1.1,0.3l-1,0.3l-1,0.1l-2.9,1.1
		l-0.3,0.3l-0.4,0.3l-1.2,0.4l-1,0.1l-2.6,1.1L561,127l-1.3,0.6l-1.1,0.4l-1.3,0.7l-2,0.9c0,0.1-0.1,0.1-0.3,0.1l-0.1,0.3l-0.9,0.4
		l-0.3,0.3h-0.4c-1.1,0.4-2.2,1-3.3,1.6l-0.9,1.6l0.1,0.1l-0.4,0.3l-1,1.6l0.1,0.4l-0.4,0.1l-0.1,0.3l-0.4,1.4l-1,2.3l-2,2.2
		l-1.1,2.9l-1,1l-1.1,1.6l-1.7,1.4l-0.9,1.1c-0.1,0.1-0.1,0.3-0.3,0.3c-3.9,5.3-8.2,10.6-12.4,15.8l-2.6,3.6l-1,1.4l-1.1,1.6
		l-0.4,0.9l-2,2.9l-1,0.3l-0.4,0.6l-0.1,0.6l-3.2,3.7l-2.7,3.6l-0.4,1l-0.4,0.7l-0.4,1.4l-0.4,0.6l-1.7,1.3l-1.4,1.9l-1.7,2.4
		l-2.6,2.3h-0.1l-2.7,3.2l0.1,0.3l-0.3,0.7l-1.1,0.6l-0.1,0.1l-7.3,8.3l-0.3,0.4l-0.4,0.7l-0.6,0.7l-3,3l-0.7,0.9l-1.3,1
		c-1,1-2,2.2-3.2,3.2l-0.3,0.7v0.4h-0.7l-3.4,3.3l-5.2,5.6v0.1l-0.7,0.7l-0.3,1l-0.6,1l-0.3,0.4l-1.4,0.7l-0.3,0.6l-0.7,0.6
		l-0.7,0.4l-1.7,1.7l-0.9,1l-0.9,1.1l-0.4,0.4l-0.9,1.3l-0.1,0.9l-0.3,0.4l-1.1,0.1l-1.9,0.9l-1.1,1l-1.3,1.4l-0.1,0.3l-2.3,2.4
		l-1.3,1.6l-1.1,1.9l-0.7,1.1l-1.4,0.7l-1,0.3l-1,1l-0.4,0.6v1l-0.4,0.4l-0.1,0.6v0.3l-1,0.9l0.1,0.1l-0.1,0.3l-0.3-0.4l-0.6,0.4
		l-0.6,0.3h-0.1l-0.3,0.3l-1.3,0.9l-1.7,0.3l-0.7,0.4l-0.6-0.3h-0.3c-0.6,0.4-1.3,0.7-2.2,0.9l-3.6,0.4c-0.7,0-1.3-0.3-1.6-0.9
		l-0.7-1.1l-0.3-2.2l0.7-3.9l0.7-2.3l2-4.7l2.7-4.3l3.4-5.6l0.9-1.4l2.4-3.6l2.9-4.7l3.9-5.5l2.3-3l3.2-4.5l0.1-0.1l0.6-0.9l4.2-6
		v-0.3l0.7-0.7l0.9-1v-0.9l1-1.6l0.7-0.6l1.4-1.4l1-2l1.6-1.3l0.1-0.4l1.6-2l0.7-0.4l3.4-4.2l1-1.1l0.4-0.7l0.7-0.9l0.1-0.6l1.1-0.9
		l1.1-0.7c0.6-0.7,1.3-1.3,1.9-1.9l0.3-0.9l1.9-1.6l1.4-1.7l0.1-0.3l0.9-1.3l1.3-1l1.7-1.1l1.3-1.4l0.9-0.6l0.3-0.3l6.8-6l2.3-2.4
		l0.6-0.7l1.6-1l1.3-1l3.3-2.4l0.4-0.6l2.6-1.9c2.6-2,5.2-4,7.9-5.9l0.1-0.4l0.7-1l0.4-0.4l1.4-0.6l0.4-0.6l0.7-0.4l1.1-0.4l0.3-0.3
		l1.1-1l1.1-0.9l0.9-1.1l0.6-0.4l0.6-0.7l0.4-0.4l2.7-1.6l2.4-0.7l0.9-0.3l3.2-2l0.4-0.6l0.3-0.1h0.3l0.1-0.1v-0.3h0.6l1.1-1.1
		l0.6-0.7l1-0.4l0.6-0.9l0.9-0.7l0.4-0.3l1.6-0.3l0.6-0.4l0.7-0.3l1.1-0.3l0.4-0.1l1-0.4c0.6-0.4,1.1-0.7,1.7-1c1-1.6,2-3.2,2.9-4.7
		v-0.1l0.9-1.7l0.3-1l0.6-1l1.4-2.3l0.4-1.1l0.4-1.6l0.1-1v-1.6l0.7-1.3v-1l0.3-0.4L556.6,112.5z M472.5,224.8
		c5.5-5.2,10.8-10.3,15.5-15.9c1.1-1.1,2.2-2.4,3.2-3.6l0.3-0.7l1.7-1.7l0.3-0.9l0.4-0.1l0.7-0.4l0.3-0.6l0.3-0.1l1.7-2v-0.1
		l2.2-2.7l0.7-0.4l6.9-8.5l0.3-0.6l1.3-2.3l1.9-1.9l0.9-0.7L520,170l0.1-0.4l1.3-1.4l0.7-1c0.4-0.6,0.9-1,1.1-1.6l0.9-1l1-1.7
		l1.6-1.7l1.1-1.3l1.4-1.7l1.3-1.1l1.1-2.3l2.2-2.4c3.3-4.3,6.6-8.6,9.5-12.9l0.6-1.1l0.9-2l0.6-1.3l-5.9,3.3l-0.9,0.6
		c-0.1,0-0.3,0.1-0.6,0.4c-1.1,0.7-1.3,0.7-1.9,1.4l-0.9,0.4l-0.6,0.6l-0.9,0.6l-1.4,0.9l-0.6,0.4l-4.6,3l-1.3,1.3l-1.3,1.4
		l-1.4,0.9l-1.4,0.4l-3.6,2.4l-0.7,1l-2.3,1.4l-0.7,0.9l-2.4,1.4c-4.9,4-9.9,8-14.7,12.4l-1,1.4l-0.7,0.3c-2.2,1.9-4.2,3.9-6.2,5.7
		v0.1l-0.4,0.6l-0.7,0.6l-1.7,1.6l-0.3,0.4l-0.7,1.1l-0.6,0.1l-0.9,0.7v0.1c-0.1,0-0.1,0.1-0.3,0.3l-0.3,0.6l-1,0.9
		c-6.8,7-12.9,14.2-18.4,21.4v0.1l-1.1,1.6l-1.1,1.7l-0.4,1.3l-0.9,0.4v0.9l-0.7,1l-0.3,0.4l-0.9,0.3l-1.4,2.2
		c-0.3,0.3-0.4,0.7-0.7,1.1l-1.6,3l-3.4,5.2l-3.7,5.5l-4.3,7.8l-2.6,3.4l-2,3.6l-1.1,3.2l-0.6,1l-0.3,1.9l0.4,1.1l1.4,1.1l1.4,0.4
		l2.4-0.7l2.9-2.6l0.9-1.4l1.1-1.1l1.3-0.7l0.9-0.7l2-2.7v-0.1l0.1-0.1l0.1,0.1h0.3l2.6-2.2l1.4-1.6l0.9-1.1l1.4-1.6l2.4-2.7
		l0.9-0.9l0.6-0.7l5.9-5l1-1.6L472.5,224.8z M568.6,58.9l-0.4,0.9l-0.6,0.1l-0.1,0.6l-0.6,0.6l-0.3,0.4H566l-0.4,0.3l-0.3-1.4
		l0.6-0.1c-0.1-0.1-0.1-0.4,0-0.9c0.3-0.9,1.3-2.3,2.6-3.7l0.1-0.3c0.9-0.9,0.6-0.7,0.9-1.1l1.1-1.9l2-1l0.4-0.6l0.4-0.3l0.1-1
		l0.3-0.3h1.1l0.9-0.6l2.4-1l0.9-0.4l0.1-0.4v-0.3h0.4v0.3l1-0.3l1.2,0.3l0.3,0.9h0.3l0.6,0.3l0.3,0.4l-0.9,2.6l-0.6,0.4l-0.4,1
		l-1.9,1.4v0.1l-0.4,0.3l-1,0.7l-0.3,0.1l-1.4,0.9l-2.2,0.9l-2.6,1.3l-3,0.7L568.6,58.9z"/>
	<path class="st0" d="M623.6,126.4l-1.4,1.1l-2,0.9l-1.3,0.3l-0.7,0.4l-0.1,0.3l-0.4,0.3l-1.9,0.7l-1.3,0.6l-0.1,0.3l-0.4,0.3
		l-1,0.3l-2.2,1.1l-0.9,0.4l-2.2,1.4l-1.1,0.4l-0.9,0.4l-1.6,0.9l-1.3,0.6l-0.9,0.3l-2.3,0.4l-2,1l-1.7,0.3l-2.4-0.1l-1.6,0.4
		l-2.7-0.6c-1.4-0.4-2.6-1.1-3.3-2.3l-0.6-0.6l0.1-0.9c-0.1-1.1-0.1-2.4,0.4-3.9v-0.6l1-2.9l1.1-2.9l0.3-1l1-1.7l1-1.1l0.3-0.6
		l0.9-0.7c0.3-0.4,0.6-0.9,1-1.4l1.1-1.7l0.4-1l0.4-0.9l0.4-0.4l0.4-1.4l1.3-1.3l0.9-0.4l0.6-0.9l1.3-1.1l2.7-4.6l0.7-2.2l1.6-2
		l1-0.9l0.6-1.1l0.6-0.4l0.3-1.4v-0.7l0.7-1.1l1-0.7l0.4-0.3h0.3v-0.3l1-1l1-0.6c0.6-0.7,1.3-1.3,2.3-1.1c0.1,0,0.3,0.1,0.4,0.3
		l0.4-0.3l0.1-0.3l0.9-0.1l1.1,0.1l1,0.7v0.7l-0.3,1.6l-1,1.6l-1.4,1.6l-0.4,0.4l-0.6,0.4h-0.3l-0.9,0.3l-2.4,2.3l-0.3,0.7l-0.1,0.3
		l-2,2c-0.1,0.3-0.4,0.4-0.6,0.6l-0.1,0.9l-1.3,1.1l-1,1.4l-1.1,1.1l-0.3,0.6l-1,0.7l-0.6,1l-0.3,0.4l-1.7,2l-2.2,2.4l-1,1.4
		l-0.9,1.3l-1.6,2.7c-1.1,1.3-1.3,1.4-1.4,1.7l-1,2.6l-0.3,1.1l-1.1,2.4l-0.9,3v0.9l-0.3,1.7c0.3,1.3,0.4,1.4,0.4,1.6l0.6,0.3
		l0.9-0.1h0.4l1,0.1l0.9-0.3l0.9-0.1l0.6,0.3h0.7l3-0.7h0.4c0.7-0.3,1.6-0.4,2.4-0.7l0.7-0.4l1.7-1l1.3-0.7l2.9-0.7l2.3-0.9l1.3-0.3
		l5-2.4l0.3-0.6h0.9l2.6-1.3l0.1-0.1l0.3-0.4l1.1-0.6h0.4l0.4-0.6l0.9-0.3l1.1-0.6l1.4-0.9l1.3-0.7l1.6-1.1l0.4-0.4l1.7-1l0.7-0.3
		l0.6-0.4l3-1.7h0.4l1-0.7l0.7-0.3l0.7-0.4c0.3,0,0.3-0.1,0.4-0.1l0.7-0.7l1-0.4l0.6-0.6l1-0.6l1.4-0.7l0.7-0.4
		c1.1-0.7,2.4-1.6,4-2.4l0.3-0.6h0.4l0.4,0.1l0.4,0.9l-0.4,0.6l-0.4,0.3l-0.9,0.4l-0.3,0.4l-0.3-0.1h-0.1v0.3l-1.9,1h-0.4l-4.5,2.7
		l-1.3,1l-1.3,1.1l-1.3,0.4l-0.9,0.4c-2.7,1.9-5.3,3.6-7.8,5l-0.6,0.7l-0.4,0.3l-1.7,0.6l-0.4,0.3l-0.3,0.3L623.6,126.4z
		 M635.9,60.3l-1.1,2l-0.6,0.7l-0.4,0.6v0.1l-1.4,0.3l-1.3,0.3l-1.1,0.4l-1.2,0.9l-0.1,0.1l-0.6,0.3l-0.7,1.1l-1.4,0.4l-1.1,2.2
		l-1.4,0.4l-0.6,0.7l-1,1.1v0.3l-1.6,1l-0.1-1.1l0.6-0.4c0-0.1,0.3-0.4,0.3-0.9l1.7-2.4l-0.3-1.1l1-2.2l0.4-0.9l1.4-1.7l1-1.1
		l0.3-0.1l1.6-1.6l0.6-0.7l1.1-0.7l0.9-1.1h0.1l0.6-0.6h-0.3l0.7-0.3v0.3l1-1l1.4-0.4l1.1,1.1l1.4,0.6l-0.4,1.6l0.3,0.7L635.9,60.3z
		"/>
	<path class="st0" d="M642.5,117.7l0.4-0.7l0.1-0.1l0.9-1.4l1-1.7l1.6-2.3l0.4-0.9l3-4.2l0.7-1.1l0.4-0.6l1.7-3l1.4-2.3l1.3-2.2
		l0.6-1.7v-0.9h-0.3v-0.3l0.3-0.3l-0.3-2.3l0.3-2.7l0.3-0.9l1.1-3.3l2.6-1.7l1.6-0.3l1.4,0.9l0.3,0.9v1.1l0.6-0.3l-0.3,0.4h-0.3
		l-0.3,0.3l-0.3,0.9c0,0.1,0.1,0.3,0.1,0.4c-0.3,1.7-1.3,3.4-2.2,5l-0.7,3.9l-1.1,1.6l-0.9,0.6l-1.4,2l-0.9,1.7l-0.7,1.3l-0.6,1.4
		l-1.1,0.9l-0.3,0.6l-0.3,0.9v0.3l-0.6,0.3l-3,4.2l-0.3,1.1l-1.7,2.2l-0.9,2l-3,4.7l-0.6,1.1l-1.6,2.3v0.1l-0.3,0.7l-0.3,0.1
		l-0.4,0.9l-0.6,1.3c0.7-0.6,1-1.1,1.6-1.7l0.4-0.6l0.1-0.1l0.4-0.9l0.9-0.6l0.4-0.4l0.9-1l0.9-0.6l1.3-1.3l0.7-0.4
		c1.9-1.7,3.7-3.6,5.7-5.3l0.7-0.9l0.3-0.4l1.3-0.9l0.9-0.7l2.3-1.6l0.4-0.4l3.3-2.2l0.7-0.3c1.3-0.6,2.4-1.3,3.6-1.9
		c0.9-0.4,3-1.3,4.7-1.1v-0.1l2.7,0.1l1,1.1l1.4,1.3l0.4,2.3v1l-0.1,1.4l-0.3,1.7l-0.1,1v1.1l-0.9,3.6v0.3l1,1.3l0.4,1.7l0.3,0.3
		l-0.3,0.3l-0.3,1v1.1l0.6,1l0.6,0.6l1.2,1c2,0.1,4.5-0.1,7-0.6l2.9-1.1l0.9-0.1l1.9-0.7l0.9-0.1l2.7-1l2-1.1l1.3-0.1l1.3-0.4
		l2.4-0.9c1.7-0.7,3.4-1.6,5.2-2.4l1.4-1l0.7-0.1l3.4-1.7l1-0.7l1.1-1l1.3-0.9l4-1.7l4.9-2.9l0.6-0.6l2-1.1h0.4v-0.3h0.4l1.3-0.9
		l0.3-0.3h0.9l0.4,0.6v0.6l-0.4,0.3l-0.7,0.3c-2.3,1.4-4.6,3-7,4.5l-1.1,1.1l-1,0.3l-1,0.6H720l-1.7,1.1l-0.3,0.3l-0.6,0.1
		c-0.1,0-0.3,0.1-0.4,0.3l-0.3,0.3l-0.7,0.3h-0.1c-1.4,0.9-3,1.7-4.6,2.4l-2.3,1.3l-6,3l-0.6,0.1l-0.1,0.1l-1.9,1.6l-1.6,0.9l-2,0.3
		l-2.2,1.1l-1,0.4l-1.3,0.3l-1.7,0.3l-1,0.1l-0.6,0.3l-0.6,0.1l-0.4,0.1c-1.1,0.3-2.3,0.4-3.4,0.6l-1.9,0.1l-0.7,0.4l-0.6,0.1
		l-1.1-0.3l-0.9,0.3l-1.2-0.1h-0.3c-1.7,0.1-3.2-1.3-4.7-2c-0.9-0.4-1.6-1-1.9-1.9l-0.1-0.6c-0.1-0.7-0.1-1.4-0.1-2.3v-1.4l0.6-1.7
		l0.7-2.6h-0.1l0.3-0.3l1.4-5.2h-0.1l-0.3-0.3l0.6-1c0.3-2.2-0.1-3.9-2-4.3c-0.9-0.1-1.1-0.6-2.3-0.1l-1.4,0.7l-1.1,0.9
		c-0.1,0-0.1,0.1-0.3,0.1l-3,2l-0.3,0.4l-0.4,0.3l-2.3,2.3l-1.1,0.6l-0.3,0.9l-4.5,3.3l-0.6,0.1l-1.2,0.7l-0.6,0.1L652,121l-1.1,0.9
		l-0.4,0.3l-1.1,0.7l-1,0.9l-0.6,0.4l-0.6,1.1l-1.4,1.1l-1.3,1c-2.2,2.2-4.2,4.3-6.5,6.5l-0.6,0.9l-0.1-0.1l-1.3,1.1
		c-0.1,0-0.1,0-0.3,0.1l-0.1,0.3l-0.4,0.1l0.1,0.3v0.3l-0.4-0.4l-0.4,0.6l-0.7,0.1l-1.1-0.4l-0.6-1.3v-2.9l1-2.4l0.7-0.9l1.4-1.4
		l1.7-0.9v-0.4h0.1l0.3,0.1v-0.6l0.4-0.3l0.6-1.1l0.7-1.9l0.7-0.9l0.3-0.7l2.2-3.2L642.5,117.7z"/>
</g>
</svg>
